<svg width="1850" height="888" viewBox="0 0 1850 888" fill="none" xmlns="http://www.w3.org/2000/svg">
<rect y="321.085" width="320" height="511.729" rx="60" fill="black"/>
<rect x="1530" y="321.085" width="320" height="511.729" rx="60" fill="black"/>
<rect width="320" height="511.729" rx="60" transform="matrix(1 0 0 -1 941 511.729)" fill="black"/>
<rect x="704" y="321.085" width="205" height="511.729" rx="60" fill="black"/>
<rect x="1293" y="376.271" width="205" height="511.729" rx="60" fill="black"/>
<rect x="704" width="205" height="290.983" rx="60" fill="black"/>
<rect x="1293" y="55.1865" width="205" height="290.983" rx="60" fill="black"/>
<rect width="320" height="290.983" rx="60" fill="black"/>
<rect x="1530" width="320" height="290.983" rx="60" fill="black"/>
<rect width="320" height="290.983" rx="60" transform="matrix(1 0 0 -1 941 832.813)" fill="black"/>
<rect x="352" y="50.1695" width="320" height="401.356" rx="60" fill="black"/>
<rect x="352" y="486.644" width="320" height="401.356" rx="60" fill="black"/>
</svg>
