<svg width="81" height="81" viewBox="0 0 81 81" fill="none" xmlns="http://www.w3.org/2000/svg">
<rect x="13.4835" y="13.4829" width="54.0337" height="54.0338" fill="black" fill-opacity="0.01"/>
<path fill-rule="evenodd" clip-rule="evenodd" d="M40.5003 20.2373C34.9971 20.2373 34.3073 20.2606 32.146 20.3592C29.9891 20.4576 28.516 20.8002 27.2276 21.3011C25.8953 21.8189 24.7652 22.5117 23.6384 23.6381C22.5121 24.7647 21.819 25.8947 21.3012 27.2272C20.8005 28.516 20.458 29.989 20.3596 32.1457C20.2607 34.3069 20.2376 34.9969 20.2376 40.5C20.2376 46.0031 20.2607 46.6929 20.3596 48.8543C20.458 51.0109 20.8005 52.484 21.3012 53.7727C21.819 55.1053 22.5121 56.2353 23.6384 57.3619C24.7652 58.4882 25.8953 59.181 27.2276 59.6988C28.516 60.1998 29.9891 60.5422 32.146 60.6406C34.3073 60.7392 34.9971 60.7626 40.5003 60.7626C46.0034 60.7626 46.6932 60.7392 48.8546 60.6406C51.0114 60.5422 52.4841 60.1998 53.773 59.6988C55.1054 59.181 56.2353 58.4882 57.3622 57.3619C58.4883 56.2353 59.1815 55.1053 59.6994 53.7727C60.2001 52.484 60.5425 51.0109 60.6409 48.8543C60.7393 46.6929 60.7629 46.0031 60.7629 40.5C60.7629 34.9969 60.7393 34.3069 60.6409 32.1457C60.5425 29.989 60.2001 28.516 59.6994 27.2272C59.1815 25.8947 58.4883 24.7647 57.3622 23.6381C56.2353 22.5117 55.1054 21.8189 53.773 21.3011C52.4841 20.8002 51.0114 20.4576 48.8546 20.3592C46.6932 20.2606 46.0034 20.2373 40.5003 20.2373ZM40.5006 23.8883C45.9109 23.8883 46.5517 23.909 48.6883 24.0065C50.6639 24.0966 51.7367 24.4267 52.4508 24.7042C53.3966 25.0718 54.0716 25.5108 54.7808 26.2199C55.4898 26.929 55.929 27.604 56.2962 28.5497C56.5738 29.2638 56.9041 30.3366 56.9941 32.3122C57.0914 34.4489 57.1123 35.0897 57.1123 40.5001C57.1123 45.9105 57.0914 46.5512 56.9941 48.688C56.9041 50.6634 56.5738 51.7364 56.2962 52.4504C55.929 53.3962 55.4898 54.0711 54.7808 54.7801C54.0716 55.4893 53.3966 55.9283 52.4508 56.296C51.7367 56.5736 50.6639 56.9036 48.6883 56.9937C46.5517 57.0912 45.9114 57.1119 40.5006 57.1119C35.0897 57.1119 34.4488 57.0912 32.3128 56.9937C30.3368 56.9036 29.2639 56.5736 28.5504 56.296C27.6045 55.9283 26.9295 55.4893 26.2204 54.7801C25.5114 54.0711 25.0722 53.3962 24.7045 52.4504C24.4269 51.7364 24.0971 50.6634 24.0069 48.688C23.9096 46.5512 23.8888 45.9105 23.8888 40.5001C23.8888 35.0897 23.9096 34.4489 24.0069 32.3122C24.0971 30.3366 24.4269 29.2638 24.7045 28.5497C25.0722 27.604 25.5114 26.929 26.2204 26.2199C26.9295 25.5108 27.6045 25.0718 28.5504 24.7042C29.2639 24.4267 30.3368 24.0966 32.3128 24.0065C34.4494 23.909 35.0903 23.8883 40.5006 23.8883ZM40.5 30.0949C34.7533 30.0949 30.0949 34.7534 30.0949 40.5001C30.0949 46.2468 34.7533 50.9052 40.5 50.9052C46.2467 50.9052 50.9051 46.2468 50.9051 40.5001C50.9051 34.7534 46.2467 30.0949 40.5 30.0949ZM40.5002 47.2544C36.7696 47.2544 33.746 44.2305 33.746 40.5002C33.746 36.7698 36.7696 33.746 40.5002 33.746C44.2301 33.746 47.2544 36.7698 47.2544 40.5002C47.2544 44.2305 44.2301 47.2544 40.5002 47.2544ZM53.7485 29.6838C53.7485 31.0267 52.6602 32.1153 51.3172 32.1153C49.9745 32.1153 48.8857 31.0267 48.8857 29.6838C48.8857 28.3409 49.9745 27.2522 51.3172 27.2522C52.6602 27.2522 53.7485 28.3409 53.7485 29.6838Z" fill="black"/>
</svg>
